<?xml version="1.0" standalone="no"?>
<!DOCTYPE svg PUBLIC "-//W3C//DTD SVG 20010904//EN"
 "http://www.w3.org/TR/2001/REC-SVG-20010904/DTD/svg10.dtd">
<svg version="1.0" xmlns="http://www.w3.org/2000/svg"
 width="300.000000pt" height="300.000000pt" viewBox="0 0 300.000000 300.000000"
 preserveAspectRatio="xMidYMid meet">
<metadata>
Created by potrace 1.11, written by Peter Selinger 2001-2013
</metadata>
<g transform="translate(0.000000,300.000000) scale(0.100000,-0.100000)"
fill="#000000" stroke="none">
<path d="M0 1500 l0 -1500 1360 0 1360 0 0 1500 0 1500 -1360 0 -1360 0 0
-1500z m604 903 c26 -83 244 -958 266 -1063 25 -123 28 -132 35 -95 19 109 74
316 178 670 64 215 123 416 132 448 l17 58 86 -3 87 -3 77 -250 c43 -137 77
-254 77 -260 0 -8 -86 -56 -129 -73 -4 -2 -10 7 -12 20 -3 13 -22 79 -41 148
-20 69 -42 145 -48 170 l-12 45 -19 -85 c-10 -47 -87 -319 -171 -605 l-153
-520 -85 -3 -85 -3 -182 688 c-101 378 -185 698 -189 711 -5 22 -4 22 80 22
73 0 86 -3 91 -17z m1616 10 c0 -4 -32 -128 -72 -276 -59 -220 -75 -267 -87
-263 -9 3 -44 15 -77 28 l-61 22 54 211 c30 115 59 227 64 248 l10 37 84 0
c47 0 85 -3 85 -7z m-206 -677 l23 -15 -96 -360 -96 -361 -85 0 -85 0 -99 333
c-55 182 -100 336 -100 341 -1 11 103 86 119 86 14 0 105 -300 135 -444 11
-55 22 -101 23 -103 2 -1 9 32 16 75 13 76 78 347 107 449 l15 52 50 -19 c28
-10 61 -25 73 -34z"/>
<path d="M2880 1500 l0 -1500 60 0 60 0 0 1500 0 1500 -60 0 -60 0 0 -1500z"/>
</g>
</svg>
